PathFileType	4	(X/Y/Z)	/Users/niels/Desktop/University/Third Semester/Perception and Action/Exam/Gymnastics Motion Tracking/Code for Gym Tracking/Analyzed Data/Webcam_Backflip/id11_2_trajectory_Sports2D/id11_2_trajectory_Sports2D_px_person00.trc
DataRate	CameraRate	NumFrames	NumMarkers	Units	OrigDataRate	OrigDataStartFrame	OrigNumFrames
29.714285714285715	29.714285714285715	11	22	m	29.714285714285715	26	105
Frame#	Time	Hip			RHip			RKnee			RAnkle			RBigToe			RSmallToe			RHeel			LHip			LKnee			LAnkle			LBigToe			LSmallToe			LHeel			Neck			Head			Nose			RShoulder			RElbow			RWrist			LShoulder			LElbow			LWrist		
		X1	Y1	Z1	X2	Y2	Z2	X3	Y3	Z3	X4	Y4	Z4	X5	Y5	Z5	X6	Y6	Z6	X7	Y7	Z7	X8	Y8	Z8	X9	Y9	Z9	X10	Y10	Z10	X11	Y11	Z11	X12	Y12	Z12	X13	Y13	Z13	X14	Y14	Z14	X15	Y15	Z15	X16	Y16	Z16	X17	Y17	Z17	X18	Y18	Z18	X19	Y19	Z19	X20	Y20	Z20	X21	Y21	Z21	X22	Y22	Z22
26	0.875	0.8739155451712218	-0.5922795961880903	0.0	0.8685547303817048	-0.5892711025906722	0.0	0.9082063940999231	-0.7897620967001101	0.0	0.8779727521916251	-0.9983147337435699	0.0	0.9671508654288918	-1.0286749817839587	0.0	0.9433832384094044	-1.036408670266781	0.0	0.8523944447508045	-1.0221290970617702	0.0	0.8774916984480687	-0.5922125832300206	0.0	0.9343390285769192	-0.7847116582856629	0.0	0.8962727988206817	-0.9761383211896286	0.0	0.9827684696320712	-1.0068296677057065	0.0	0.9752966771190351	-0.9981468961105074	0.0	0.8745118605700368	-0.9985268360701918	0.0	1.0031628029320188	-0.3499840588166291	0.0	1.1101789800153627	-0.260048862480957	0.0	1.0876824402960477	-0.3404761973161998	0.0	0.9676816111417034	-0.3608202000952277	0.0	0.8436868451530551	-0.42904114181989517	0.0	0.7316855126247085	-0.4935313083023254	0.0	0.975610720649025	-0.3695477498134058	0.0	0.8540261413706398	-0.4466853286087082	0.0	0.7784458933781887	-0.5220738743403477	0.0
27	0.9086538461538461	0.8686997630729577	-0.5899612766106609	0.0	0.8621040177019292	-0.5877902358667167	0.0	0.9030549061155968	-0.7897387273029254	0.0	0.8775248722444793	-0.998327916267263	0.0	0.9669976699245935	-1.0300030600574335	0.0	0.9424897100102412	-1.0376422902860396	0.0	0.8518183362293184	-1.0227033252955298	0.0	0.8718488774732454	-0.5915807114773529	0.0	0.9329311871127601	-0.7849616674528512	0.0	0.8938171395429814	-0.9769937106869518	0.0	0.9817161687976428	-1.00809023113242	0.0	0.9739824553449032	-0.9995848467560915	0.0	0.8713399032116895	-1.0003528541240632	0.0	1.0094958701203314	-0.3557794058131443	0.0	1.1188994751300088	-0.26805683959090154	0.0	1.095081777157357	-0.34618976780051147	0.0	0.972784818842046	-0.3635247554113269	0.0	0.8415086080705574	-0.41827214075125096	0.0	0.72228766578274	-0.4694564303147307	0.0	0.9838644314566712	-0.3746768535003871	0.0	0.854087351012186	-0.43816556433971315	0.0	0.7803632251134657	-0.5101853186389103	0.0
28	0.9423076923076923	0.8636732800398523	-0.5894539754005796	0.0	0.8561610209799861	-0.5879044407725146	0.0	0.8986656768339253	-0.7906970053911931	0.0	0.876979895118521	-0.998743062444144	0.0	0.9662611714117807	-1.031939368834045	0.0	0.9412858638127435	-1.0396109170949552	0.0	0.8512360951428328	-1.0238292776337867	0.0	0.8674463139269564	-0.5926974667072349	0.0	0.9313628361786492	-0.7863294531454399	0.0	0.8909260261417915	-0.978365120100904	0.0	0.9799668562810621	-1.010142275795279	0.0	0.971953158141956	-1.0018417082707503	0.0	0.8672708590594309	-1.0030309108556446	0.0	1.0150567741523575	-0.36320566079701344	0.0	1.1264874046686706	-0.277321005354731	0.0	1.1016242599892645	-0.3530189830319615	0.0	0.9771528708062551	-0.36836446770372966	0.0	0.840907534668259	-0.4122131153136148	0.0	0.7167437006735995	-0.4527379248865158	0.0	0.9913329394308227	-0.38185924366313023	0.0	0.8548215398936416	-0.43404295912927043	0.0	0.7811498024047447	-0.5025435730925274	0.0
29	0.9759615384615384	0.8592580902059601	-0.5905648570655858	0.0	0.8510332868198162	-0.5894384842523844	0.0	0.8957220678264414	-0.79242104797361	0.0	0.876279365863388	-0.9992572956232062	0.0	0.9649526351426788	-1.033939392483227	0.0	0.9398145101282201	-1.0417299617421993	0.0	0.8505517104435493	-1.0250024414043066	0.0	0.8645241210671987	-0.5951898872226282	0.0	0.9300225547004985	-0.7884495728585386	0.0	0.888044791993454	-0.9798957571841486	0.0	0.9776972174703737	-1.0125508018223188	0.0	0.9695129247985884	-1.0045397960935047	0.0	0.8632128627847819	-1.0058639610405244	0.0	1.019965404034411	-0.37202820036346146	0.0	1.1328713378993978	-0.28725137318689986	0.0	1.1074017791638786	-0.3608314948704059	0.0	0.9807710466192162	-0.3753123902516039	0.0	0.840873767334419	-0.41164748475269203	0.0	0.7136693582790118	-0.4454252587645199	0.0	0.9979982500586698	-0.3908092101527182	0.0	0.8559647114443822	-0.43527385065724616	0.0	0.7781475891607876	-0.49967779346928487	0.0
30	1.0096153846153846	0.8558017706606331	-0.5929009735905412	0.0	0.8470772111138773	-0.5920765863386336	0.0	0.8950776737253793	-0.7944965982520921	0.0	0.8755231109958383	-0.9994981896156352	0.0	0.9634274344672035	-1.0354563388693345	0.0	0.9383704668397335	-1.0433372083560049	0.0	0.849824283634593	-1.025615932471318	0.0	0.8629617408210584	-0.5983482751289726	0.0	0.9293503992440814	-0.7907736501424152	0.0	0.8855034022505384	-0.9812904270570869	0.0	0.9754032395233062	-1.0148813298213764	0.0	0.9671241059935877	-1.0072750801639003	0.0	0.8598254602033217	-1.0083001652420847	0.0	1.0243846613674037	-0.3815327023296797	0.0	1.1379315551033944	-0.29684150479894206	0.0	1.112420971069862	-0.369156735940214	0.0	0.9837398611857945	-0.38400665748981944	0.0	0.8407296828216521	-0.4171678419906909	0.0	0.712515799359369	-0.4492249466399476	0.0	1.003779349447374	-0.4007353604719488	0.0	0.8573946988148997	-0.4419940766772675	0.0	0.7712731465321829	-0.5022644062932335	0.0
31	1.0432692307692306	0.8534978848842414	-0.5961767176592425	0.0	0.8446372405586995	-0.5956332499909801	0.0	0.897473936198929	-0.7965055046931993	0.0	0.8749581440807582	-0.9992617439018909	0.0	0.9622712475390067	-1.0361595585250456	0.0	0.937411107829006	-1.0440368336355603	0.0	0.8493385719658405	-1.0253087408619064	0.0	0.8625415990985051	-0.6015710518255493	0.0	0.9296399722816154	-0.7928068530932897	0.0	0.8834070005995882	-0.9823355451047557	0.0	0.973609230720028	-1.0166718100173389	0.0	0.9650071164274923	-1.0096842674343829	0.0	0.8570517606744493	-1.0099990833787476	0.0	1.0282672188657769	-0.3907043878583696	0.0	1.1413505021220882	-0.30502205934889526	0.0	1.116446767986255	-0.37717595146927535	0.0	0.9861549143783108	-0.39377946987483653	0.0	0.8407413997388897	-0.4290194637334956	0.0	0.7140948602784063	-0.4651101254834508	0.0	1.0083213309781998	-0.4104822830043661	0.0	0.8593116547385903	-0.45364591852220826	0.0	0.7631055932041487	-0.5108417230523823	0.0
32	1.0769230769230769	0.8523622730599782	-0.6002907718600753	0.0	0.8439092923767885	-0.600134091204414	0.0	0.9031542564426148	-0.7981592462638184	0.0	0.8747980826994595	-0.9985328030449097	0.0	0.961906835600801	-1.0360679892472562	0.0	0.9372185288579685	-1.0438620871928521	0.0	0.8493776084973684	-1.0240890885245841	0.0	0.8630337259387286	-0.6046455324301797	0.0	0.9309491561416233	-0.7942939432302648	0.0	0.8817931968037543	-0.9827919365275826	0.0	0.9725063519006014	-1.0174777218780975	0.0	0.9628954507792877	-1.011412494387839	0.0	0.8544295058103961	-1.0107340089000583	0.0	1.0312604649222354	-0.3984429949119578	0.0	1.14257110835849	-0.31094586804458574	0.0	1.1189505395410853	-0.383837889538973	0.0	0.9880140085454373	-0.403758572372003	0.0	0.8422765113243752	-0.4469232779736798	0.0	0.7207731675190828	-0.4928428373247011	0.0	1.0110727937914317	-0.4189350572501156	0.0	0.8625293026673748	-0.46931518090468877	0.0	0.7584437095560889	-0.5259156293332444	0.0
33	1.1105769230769231	0.8522658572031484	-0.6051251088941636	0.0	0.8447087454427459	-0.605600642385584	0.0	0.9115246593936752	-0.7993631886503495	0.0	0.8750886387484333	-0.9974114607616528	0.0	0.9624488847488372	-1.0355575909390777	0.0	0.9377676854209221	-1.0432340465750167	0.0	0.8499871273296656	-1.0222994591226762	0.0	0.864262799081308	-0.6077471632726993	0.0	0.9332244411130997	-0.7952146854491484	0.0	0.880892732191608	-0.9824235648782208	0.0	0.9718876038798641	-1.0171422568138833	0.0	0.9603062161228277	-1.01220787146192	0.0	0.8518767997348041	-1.0103806200756318	0.0	1.0328118040341445	-0.4037940321752958	0.0	1.1409345986354984	-0.31410788425713454	0.0	1.1192207436652217	-0.3881126374407042	0.0	0.9891204236896833	-0.4129650465619821	0.0	0.8472991573243557	-0.4698528268546807	0.0	0.7360823679719197	-0.5305159552921248	0.0	1.0116134072195733	-0.42542669976140857	0.0	0.8685434854836886	-0.48788670701619247	0.0	0.763029210119481	-0.5477395856410123	0.0
34	1.1442307692307692	0.8529672789997249	-0.6102856798122304	0.0	0.8464101768341925	-0.6117191559498165	0.0	0.9213025390343097	-0.8002430052049304	0.0	0.8757453859660246	-0.9960692996555732	0.0	0.9637723424444851	-1.0351177690362807	0.0	0.9388563764783685	-1.0427022346185024	0.0	0.8509735627789718	-1.0205020031324359	0.0	0.8660535420793501	-0.611131846545798	0.0	0.9364877787731379	-0.7956881629577154	0.0	0.8810850852234445	-0.981185242034064	0.0	0.9714582667127056	-1.015900727266441	0.0	0.9572260744445287	-1.0120230084871875	0.0	0.8499882781776154	-1.0089916190655153	0.0	1.0323402770556975	-0.40619770029164093	0.0	1.1358954177143692	-0.3143021285674498	0.0	1.1166218478572147	-0.38924791558432337	0.0	0.9890306611873971	-0.42043900005499496	0.0	0.8575362663751288	-0.49582688045110607	0.0	0.7636112773169621	-0.5741659117131617	0.0	1.0099087634475086	-0.42973637366596523	0.0	0.8791448714425211	-0.5077765773526413	0.0	0.7818931003606753	-0.5752277662792866	0.0
35	1.1778846153846154	0.8542540863340916	-0.6151490592946017	0.0	0.8483030922315926	-0.6177287987714913	0.0	0.9311149127684212	-0.8011303506612223	0.0	0.8766410078309135	-0.9947149515631736	0.0	0.9654909847366852	-1.035025888434862	0.0	0.9401853715688409	-1.0425794330654454	0.0	0.852068344688743	-1.0192008448757937	0.0	0.8682716260264538	-0.6147892478778291	0.0	0.9408948921853029	-0.7959902546205906	0.0	0.882547844770901	-0.9793338463921979	0.0	0.971153108767321	-1.0141477533321508	0.0	0.9544630535517883	-1.0109932067462015	0.0	0.8494899414143753	-1.0067982432340483	0.0	1.029372936168789	-0.4056095153056393	0.0	1.1271570390437606	-0.3114759040106148	0.0	1.1107819560682883	-0.3869366105056179	0.0	0.9870893185209951	-0.42545323992738177	0.0	0.8738393758894577	-0.5218624153950868	0.0	0.8055040417220555	-0.6175248314847634	0.0	1.0063813604322733	-0.43185220877354286	0.0	0.8959681608922783	-0.5266966174988275	0.0	0.8179097977739275	-0.6047839434993914	0.0
36	1.2115384615384615	0.8561884444990039	-0.6192344602249799	0.0	0.8501764123601415	-0.6228053621048145	0.0	0.9400763268945139	-0.8024729251973985	0.0	0.8776666101521166	-0.9935354269266932	0.0	0.9670621848827023	-1.0352751953016637	0.0	0.9414203610246922	-1.0428168143403158	0.0	0.8531093663383482	-1.0185373407441367	0.0	0.8710673891544265	-0.6184708427414738	0.0	0.9467002983013632	-0.7965686101696828	0.0	0.8849732537738374	-0.9772821459962434	0.0	0.9710350244957634	-1.0122017321592183	0.0	0.952962867325847	-1.0093819143651384	0.0	0.8505005698854315	-1.0040882245000993	0.0	1.0236368643676867	-0.4024053749093018	0.0	1.1147242060282367	-0.3056937265101289	0.0	1.1016508899670028	-0.38136125140727384	0.0	0.9827362515257294	-0.42768348050714117	0.0	0.8961454034517479	-0.5439405585302401	0.0	0.8612344550753052	-0.6521897816559935	0.0	1.0015992880925777	-0.43178250027408605	0.0	0.919807615296403	-0.5416333490633805	0.0	0.8705268616524736	-0.6299776669984166	0.0
